<svg width="24" height="25" viewBox="0 0 24 25" fill="none" xmlns="http://www.w3.org/2000/svg">
<g clip-path="url(#clip0_2_1759)">
<path d="M24 12.1707C24 5.54324 18.6274 0.170654 12 0.170654C5.37258 0.170654 0 5.54324 0 12.1707C0 18.7981 5.37258 24.1707 12 24.1707C18.6274 24.1707 24 18.7981 24 12.1707Z" fill="#8082EF"/>
<path fill-rule="evenodd" clip-rule="evenodd" d="M9.91692 15.9286L6.67476 12.9157C6.3104 12.5771 6.3104 12.0003 6.67476 11.6617C7.00324 11.3564 7.51163 11.3564 7.84011 11.6617L10.5456 14.1759L16.1591 8.73598C16.4861 8.41901 17.0041 8.41359 17.3378 8.72365C17.6975 9.05797 17.7029 9.62575 17.3496 9.96685L11.1743 15.9286C11.0075 16.0835 10.7814 16.1706 10.5456 16.1706C10.3098 16.1706 10.0836 16.0835 9.91692 15.9286Z" fill="white"/>
</g>
<defs>
<clipPath id="clip0_2_1759">
<rect width="24" height="25" fill="white"/>
</clipPath>
</defs>
</svg>
